# xmcd
#
# Track frame offsets: 
#        150
#        12962
#        29185
#        43010
#        57880
#        74045
#        102727
#        119232
#        132872
#        146752
#        153425
#        170787
#        183357
#
# Disc length: 2582 seconds
#
# Revision: 5
# Processed by: cddbd v1.5.2PL0 Copyright (c) Steve Scherf et al.
# Submitted via: ExactAudioCopyFreeDBPlugin 1.0
#
DISCID=d00a140d
DTITLE=Muddy Waters and Howlin' Wolf - Muddy and The Wolf
DYEAR=1983
DGENRE=Blues
TTITLE0=All Aboard
TTITLE1=Blow Wind Blow
TTITLE2=Can't Lose What You Ain't Never Had
TTITLE3=Walkin' Thru The Park
TTITLE4=I'm Ready
TTITLE5=Long Distance Call
TTITLE6=Rockin' Daddy
TTITLE7=What A Woman!
TTITLE8=Who's Been Talking?
TTITLE9=Red Rooster (rehearsal)
TTITLE10=Red Rooster
TTITLE11=Highway 49
TTITLE12=Do The Do
EXTD=Famous artists play backup for both men
EXTT0=
EXTT1=
EXTT2=
EXTT3=
EXTT4=
EXTT5=
EXTT6=
EXTT7=
EXTT8=
EXTT9=
EXTT10=
EXTT11=
EXTT12=
PLAYORDER=
